<svg id="svg" version="1.1" width="400" height="400" viewBox="0 0 400 400" xmlns="http://www.w3.org/2000/svg" xmlns:xlink="http://www.w3.org/1999/xlink" ><g id="svgg"><path id="path0" d="M181.699 142.101 C 135.782 188.019,124.800 199.198,124.800 200.023 C 124.800 201.196,237.483 314.469,239.058 314.879 C 240.202 315.178,354.123 201.206,353.923 199.964 C 353.765 198.986,240.032 85.200,239.213 85.200 C 238.875 85.200,212.994 110.805,181.699 142.101 M102.167 97.159 C 98.585 98.786,97.398 103.415,99.766 106.520 C 101.954 109.389,98.488 109.200,148.968 109.200 L 194.416 109.200 195.935 108.241 C 200.532 105.339,199.805 98.759,194.674 96.825 C 192.380 95.960,104.105 96.279,102.167 97.159 M286.900 152.130 C 312.805 178.128,334.000 199.708,334.000 200.085 C 334.000 200.634,305.060 229.885,242.647 292.421 C 241.132 293.939,239.542 295.291,239.113 295.428 C 237.982 295.787,144.010 201.498,144.006 200.000 C 144.004 199.211,148.600 194.404,165.804 177.200 C 177.794 165.210,198.988 143.939,212.902 129.931 C 233.002 109.695,238.364 104.503,239.000 104.662 C 239.440 104.771,260.995 126.132,286.900 152.130 M71.787 146.391 C 68.124 148.739,67.489 152.725,70.263 155.965 C 75.129 161.650,84.396 154.854,80.144 148.720 C 78.048 145.694,74.442 144.689,71.787 146.391 M97.324 146.431 C 94.196 148.434,93.325 151.901,95.199 154.885 C 97.422 158.426,95.732 158.200,120.043 158.200 L 141.521 158.200 143.259 156.941 C 147.142 154.128,146.671 148.409,142.372 146.186 C 140.313 145.121,99.018 145.346,97.324 146.431 M51.866 195.840 C 48.394 199.262,49.522 204.440,54.119 206.187 C 55.600 206.749,58.477 206.812,78.261 206.713 L 100.722 206.600 102.461 205.344 C 106.223 202.627,106.174 197.566,102.361 195.069 L 100.728 194.000 77.230 194.000 L 53.732 194.000 51.866 195.840 M41.637 242.864 C 36.338 246.501,38.093 254.132,44.358 254.694 C 48.859 255.098,52.558 249.730,50.467 245.829 C 48.591 242.329,44.445 240.937,41.637 242.864 M66.011 244.437 C 63.235 247.297,63.307 250.490,66.208 253.165 L 67.995 254.812 105.965 254.706 L 143.936 254.600 145.006 253.600 C 148.227 250.590,147.859 245.306,144.290 243.323 C 143.601 242.940,134.828 242.825,105.500 242.814 L 67.599 242.800 66.011 244.437 M102.543 290.782 C 97.072 292.086,95.270 297.486,99.005 301.384 L 100.745 303.200 147.095 303.200 L 193.445 303.200 194.822 302.191 C 199.335 298.885,197.993 292.347,192.488 290.818 C 190.751 290.335,104.560 290.301,102.543 290.782 " stroke="none" fill="#ffffff" fill-rule="evenodd"></path><path id="path1" d="M0.000 200.000 L 0.000 400.000 200.000 400.000 L 400.000 400.000 400.000 200.000 L 400.000 0.000 200.000 0.000 L 0.000 0.000 0.000 200.000 M296.814 142.201 C 328.156 173.551,353.855 199.544,353.923 199.964 C 354.123 201.206,240.202 315.178,239.058 314.879 C 237.483 314.469,124.800 201.196,124.800 200.023 C 124.800 198.865,238.059 85.200,239.213 85.200 C 239.551 85.200,265.471 110.850,296.814 142.201 M194.674 96.825 C 199.805 98.759,200.532 105.339,195.935 108.241 L 194.416 109.200 148.968 109.200 C 98.488 109.200,101.954 109.389,99.766 106.520 C 97.398 103.415,98.585 98.786,102.167 97.159 C 104.105 96.279,192.380 95.960,194.674 96.825 M212.902 129.931 C 198.988 143.939,177.794 165.210,165.804 177.200 C 148.600 194.404,144.004 199.211,144.006 200.000 C 144.010 201.498,237.982 295.787,239.113 295.428 C 239.542 295.291,241.132 293.939,242.647 292.421 C 305.060 229.885,334.000 200.634,334.000 200.085 C 334.000 199.242,240.117 104.940,239.000 104.662 C 238.364 104.503,233.002 109.695,212.902 129.931 M77.797 146.398 C 81.558 148.723,82.268 152.618,79.500 155.738 C 75.855 159.845,69.616 158.273,68.626 152.998 C 67.677 147.941,73.506 143.746,77.797 146.398 M142.372 146.186 C 146.671 148.409,147.142 154.128,143.259 156.941 L 141.521 158.200 120.043 158.200 C 95.732 158.200,97.422 158.426,95.199 154.885 C 93.325 151.901,94.196 148.434,97.324 146.431 C 99.018 145.346,140.313 145.121,142.372 146.186 M102.361 195.069 C 106.174 197.566,106.223 202.627,102.461 205.344 L 100.722 206.600 78.261 206.713 C 58.477 206.812,55.600 206.749,54.119 206.187 C 49.522 204.440,48.394 199.262,51.866 195.840 L 53.732 194.000 77.230 194.000 L 100.728 194.000 102.361 195.069 M48.425 243.360 C 52.167 246.508,51.901 251.104,47.821 253.791 C 43.652 256.537,37.936 252.796,38.510 247.698 C 39.064 242.788,44.776 240.289,48.425 243.360 M144.290 243.323 C 147.859 245.306,148.227 250.590,145.006 253.600 L 143.936 254.600 105.965 254.706 L 67.995 254.812 66.208 253.165 C 63.307 250.490,63.235 247.297,66.011 244.437 L 67.599 242.800 105.500 242.814 C 134.828 242.825,143.601 242.940,144.290 243.323 M192.488 290.818 C 197.993 292.347,199.335 298.885,194.822 302.191 L 193.445 303.200 147.095 303.200 L 100.745 303.200 99.005 301.384 C 95.270 297.486,97.072 292.086,102.543 290.782 C 104.560 290.301,190.751 290.335,192.488 290.818 " stroke="none" fill="#2ab7ca" fill-rule="evenodd"></path></g></svg>